<svg width="24" height="20" viewBox="0 0 24 20" fill="none" xmlns="http://www.w3.org/2000/svg">
<path d="M23 17C23 17.5304 22.7893 18.0391 22.4143 18.4142C22.0392 18.7893 21.5305 19 21 19H3.00005C2.46961 19 1.9609 18.7893 1.58583 18.4142C1.21076 18.0391 1.00005 17.5304 1.00005 17V6C1.00005 5.46957 1.21076 4.96086 1.58583 4.58579C1.9609 4.21071 2.46961 4 3.00005 4H7.00005L9.00005 1H15L17 4H21C21.5305 4 22.0392 4.21071 22.4143 4.58579C22.7893 4.96086 23 5.46957 23 6V17Z" stroke="white" stroke-width="2" stroke-linecap="round" stroke-linejoin="round"/>
<path d="M12 15C14.2092 15 16 13.2091 16 11C16 8.79086 14.2092 7 12 7C9.79091 7 8.00005 8.79086 8.00005 11C8.00005 13.2091 9.79091 15 12 15Z" stroke="white" stroke-width="2" stroke-linecap="round" stroke-linejoin="round"/>
</svg>
