<svg width="22" height="23" viewBox="0 0 22 23" fill="none" xmlns="http://www.w3.org/2000/svg">
<path d="M4.05345 11.5V11.5001C4.05353 12.304 4.19021 13.0774 4.44282 13.7969L3.81062 16.157L1.66756 16.2023C0.954207 14.7894 0.55242 13.1925 0.55242 11.5C0.55242 9.88763 0.917044 8.36194 1.56881 6.99948L3.45877 7.34598L4.37137 9.41676C4.165 10.0747 4.05345 10.7747 4.05345 11.5Z" fill="#F6DA0A" stroke="#F6DA0A" stroke-width="0.923077"/>
<path d="M21.7185 9.46204C21.8437 10.122 21.9091 10.8035 21.9091 11.5C21.9091 12.281 21.827 13.0429 21.6705 13.7777C21.1395 16.2784 19.7518 18.462 17.8296 20.0073L17.829 20.0067L14.7163 19.8479L14.2758 17.0978C15.5513 16.3498 16.5481 15.1791 17.0732 13.7777H11.2398V9.46204H17.1583H21.7185Z" fill="#518EF8"/>
<path d="M17.8289 20.0068L17.8295 20.0073C15.96 21.51 13.5852 22.4091 11 22.4091C6.84554 22.4091 3.23356 20.0871 1.39099 16.6699L4.92626 13.776C5.84752 16.2347 8.21936 17.985 11 17.985C12.1952 17.985 13.3149 17.6619 14.2757 17.0979L17.8289 20.0068Z" fill="#28B446"/>
<path d="M17.9632 3.10242L14.4292 5.99572C13.4348 5.37415 12.2593 5.01509 11 5.01509C8.15642 5.01509 5.74023 6.84564 4.86512 9.39253L1.31127 6.48305H1.31067C3.12627 2.98255 6.7838 0.590942 11 0.590942C13.6469 0.590942 16.0739 1.53381 17.9632 3.10242Z" fill="#F14336"/>
</svg>
